<mxfile host="Electron" agent="Mozilla/5.0 (Windows NT 10.0; Win64; x64) AppleWebKit/537.36 (KHTML, like Gecko) draw.io/25.0.2 Chrome/128.0.6613.186 Electron/32.2.5 Safari/537.36" version="25.0.2">
  <diagram name="Page-1" id="2YBvvXClWsGukQMizWep">
    <mxGraphModel dx="2150" dy="1181" grid="0" gridSize="10" guides="1" tooltips="1" connect="1" arrows="1" fold="1" page="0" pageScale="1" pageWidth="850" pageHeight="1100" math="0" shadow="0">
      <root>
        <mxCell id="0" />
        <mxCell id="1" parent="0" />
        <mxCell id="ef6bgN57XjxLY9Qcaa6K-2" value="&lt;font style=&quot;font-size: 24px;&quot;&gt;VIEWS&lt;/font&gt;" style="text;html=1;align=center;verticalAlign=middle;whiteSpace=wrap;rounded=0;" vertex="1" parent="1">
          <mxGeometry x="-580" y="-210" width="60" height="30" as="geometry" />
        </mxCell>
        <mxCell id="ef6bgN57XjxLY9Qcaa6K-3" value="&lt;font style=&quot;font-size: 24px;&quot;&gt;MODELS&lt;/font&gt;" style="text;html=1;align=center;verticalAlign=middle;whiteSpace=wrap;rounded=0;" vertex="1" parent="1">
          <mxGeometry x="-340" y="-210" width="60" height="30" as="geometry" />
        </mxCell>
        <mxCell id="ef6bgN57XjxLY9Qcaa6K-4" value="&lt;font style=&quot;font-size: 14px;&quot;&gt;Login&lt;/font&gt;" style="ellipse;whiteSpace=wrap;html=1;" vertex="1" parent="1">
          <mxGeometry x="-610" y="-130" width="120" height="80" as="geometry" />
        </mxCell>
        <mxCell id="ef6bgN57XjxLY9Qcaa6K-5" value="Account" style="rounded=1;whiteSpace=wrap;html=1;" vertex="1" parent="1">
          <mxGeometry x="-370" y="-120" width="120" height="60" as="geometry" />
        </mxCell>
        <mxCell id="ef6bgN57XjxLY9Qcaa6K-6" value="Production Associate Account" style="rounded=1;whiteSpace=wrap;html=1;" vertex="1" parent="1">
          <mxGeometry x="-170" y="-165" width="120" height="60" as="geometry" />
        </mxCell>
        <mxCell id="ef6bgN57XjxLY9Qcaa6K-7" value="Head of Production Account" style="rounded=1;whiteSpace=wrap;html=1;" vertex="1" parent="1">
          <mxGeometry x="-170" y="-75" width="120" height="60" as="geometry" />
        </mxCell>
        <mxCell id="ef6bgN57XjxLY9Qcaa6K-8" value="" style="endArrow=classic;startArrow=classic;html=1;rounded=0;entryX=0;entryY=0.5;entryDx=0;entryDy=0;exitX=1;exitY=0.25;exitDx=0;exitDy=0;" edge="1" parent="1" source="ef6bgN57XjxLY9Qcaa6K-5" target="ef6bgN57XjxLY9Qcaa6K-6">
          <mxGeometry width="50" height="50" relative="1" as="geometry">
            <mxPoint x="-240" y="-120" as="sourcePoint" />
            <mxPoint x="-190" y="-170" as="targetPoint" />
          </mxGeometry>
        </mxCell>
        <mxCell id="ef6bgN57XjxLY9Qcaa6K-9" value="" style="endArrow=classic;startArrow=classic;html=1;rounded=0;entryX=0;entryY=0.5;entryDx=0;entryDy=0;exitX=1;exitY=0.75;exitDx=0;exitDy=0;" edge="1" parent="1" source="ef6bgN57XjxLY9Qcaa6K-5" target="ef6bgN57XjxLY9Qcaa6K-7">
          <mxGeometry width="50" height="50" relative="1" as="geometry">
            <mxPoint x="-240" y="-95" as="sourcePoint" />
            <mxPoint x="-160" y="-125" as="targetPoint" />
          </mxGeometry>
        </mxCell>
        <mxCell id="ef6bgN57XjxLY9Qcaa6K-10" value="" style="endArrow=classic;startArrow=classic;html=1;rounded=0;entryX=0;entryY=0.5;entryDx=0;entryDy=0;exitX=1;exitY=0.5;exitDx=0;exitDy=0;" edge="1" parent="1" source="ef6bgN57XjxLY9Qcaa6K-4" target="ef6bgN57XjxLY9Qcaa6K-5">
          <mxGeometry width="50" height="50" relative="1" as="geometry">
            <mxPoint x="-470" y="-50" as="sourcePoint" />
            <mxPoint x="-420" y="-100" as="targetPoint" />
          </mxGeometry>
        </mxCell>
        <mxCell id="ef6bgN57XjxLY9Qcaa6K-13" value="&lt;h1 style=&quot;margin-top: 0px;&quot;&gt;Account Login&lt;/h1&gt;" style="text;html=1;whiteSpace=wrap;overflow=hidden;rounded=0;" vertex="1" parent="1">
          <mxGeometry x="-460" y="-290" width="180" height="120" as="geometry" />
        </mxCell>
        <mxCell id="ef6bgN57XjxLY9Qcaa6K-14" value="&lt;font style=&quot;font-size: 24px;&quot;&gt;VIEWS&lt;/font&gt;" style="text;html=1;align=center;verticalAlign=middle;whiteSpace=wrap;rounded=0;" vertex="1" parent="1">
          <mxGeometry x="-580" y="65" width="60" height="30" as="geometry" />
        </mxCell>
        <mxCell id="ef6bgN57XjxLY9Qcaa6K-15" value="&lt;font style=&quot;font-size: 24px;&quot;&gt;MODELS&lt;/font&gt;" style="text;html=1;align=center;verticalAlign=middle;whiteSpace=wrap;rounded=0;" vertex="1" parent="1">
          <mxGeometry x="-340" y="65" width="60" height="30" as="geometry" />
        </mxCell>
        <mxCell id="ef6bgN57XjxLY9Qcaa6K-16" value="&lt;font style=&quot;font-size: 14px;&quot;&gt;View Travellers&lt;/font&gt;" style="ellipse;whiteSpace=wrap;html=1;" vertex="1" parent="1">
          <mxGeometry x="-610" y="145" width="120" height="80" as="geometry" />
        </mxCell>
        <mxCell id="ef6bgN57XjxLY9Qcaa6K-17" value="Traveller Sheet" style="rounded=1;whiteSpace=wrap;html=1;" vertex="1" parent="1">
          <mxGeometry x="-370" y="155" width="120" height="60" as="geometry" />
        </mxCell>
        <mxCell id="ef6bgN57XjxLY9Qcaa6K-18" value="Account" style="rounded=1;whiteSpace=wrap;html=1;" vertex="1" parent="1">
          <mxGeometry x="-170" y="155" width="120" height="60" as="geometry" />
        </mxCell>
        <mxCell id="ef6bgN57XjxLY9Qcaa6K-22" value="" style="endArrow=classic;startArrow=classic;html=1;rounded=0;entryX=0;entryY=0.75;entryDx=0;entryDy=0;exitX=1;exitY=0.5;exitDx=0;exitDy=0;" edge="1" parent="1" source="ef6bgN57XjxLY9Qcaa6K-24" target="ef6bgN57XjxLY9Qcaa6K-17">
          <mxGeometry width="50" height="50" relative="1" as="geometry">
            <mxPoint x="-470" y="280" as="sourcePoint" />
            <mxPoint x="-350" y="280" as="targetPoint" />
          </mxGeometry>
        </mxCell>
        <mxCell id="ef6bgN57XjxLY9Qcaa6K-23" value="&lt;h1 style=&quot;margin-top: 0px;&quot;&gt;Edit Traveller&lt;/h1&gt;" style="text;html=1;whiteSpace=wrap;overflow=hidden;rounded=0;" vertex="1" parent="1">
          <mxGeometry x="-460" y="-15" width="180" height="47" as="geometry" />
        </mxCell>
        <mxCell id="ef6bgN57XjxLY9Qcaa6K-24" value="&lt;font style=&quot;font-size: 14px;&quot;&gt;Edit Traveller&lt;/font&gt;" style="ellipse;whiteSpace=wrap;html=1;" vertex="1" parent="1">
          <mxGeometry x="-610" y="250" width="120" height="80" as="geometry" />
        </mxCell>
        <mxCell id="ef6bgN57XjxLY9Qcaa6K-25" value="" style="endArrow=classic;html=1;rounded=0;exitX=1;exitY=0.5;exitDx=0;exitDy=0;entryX=0;entryY=0.5;entryDx=0;entryDy=0;" edge="1" parent="1" source="ef6bgN57XjxLY9Qcaa6K-16" target="ef6bgN57XjxLY9Qcaa6K-17">
          <mxGeometry width="50" height="50" relative="1" as="geometry">
            <mxPoint x="-460" y="200" as="sourcePoint" />
            <mxPoint x="-410" y="150" as="targetPoint" />
          </mxGeometry>
        </mxCell>
        <mxCell id="ef6bgN57XjxLY9Qcaa6K-28" value="" style="endArrow=classic;html=1;rounded=0;exitX=0;exitY=0.5;exitDx=0;exitDy=0;entryX=1;entryY=0.5;entryDx=0;entryDy=0;" edge="1" parent="1" source="ef6bgN57XjxLY9Qcaa6K-18" target="ef6bgN57XjxLY9Qcaa6K-17">
          <mxGeometry width="50" height="50" relative="1" as="geometry">
            <mxPoint x="-260" y="300" as="sourcePoint" />
            <mxPoint x="-210" y="250" as="targetPoint" />
          </mxGeometry>
        </mxCell>
        <mxCell id="ef6bgN57XjxLY9Qcaa6K-30" value="&lt;font style=&quot;font-size: 24px;&quot;&gt;VIEWS&lt;/font&gt;" style="text;html=1;align=center;verticalAlign=middle;whiteSpace=wrap;rounded=0;" vertex="1" parent="1">
          <mxGeometry x="-580" y="425" width="60" height="30" as="geometry" />
        </mxCell>
        <mxCell id="ef6bgN57XjxLY9Qcaa6K-31" value="&lt;font style=&quot;font-size: 24px;&quot;&gt;MODELS&lt;/font&gt;" style="text;html=1;align=center;verticalAlign=middle;whiteSpace=wrap;rounded=0;" vertex="1" parent="1">
          <mxGeometry x="-340" y="425" width="60" height="30" as="geometry" />
        </mxCell>
        <mxCell id="ef6bgN57XjxLY9Qcaa6K-32" value="&lt;font style=&quot;font-size: 14px;&quot;&gt;View Travellers&lt;/font&gt;" style="ellipse;whiteSpace=wrap;html=1;" vertex="1" parent="1">
          <mxGeometry x="-610" y="505" width="120" height="80" as="geometry" />
        </mxCell>
        <mxCell id="ef6bgN57XjxLY9Qcaa6K-33" value="Traveller Sheet" style="rounded=1;whiteSpace=wrap;html=1;" vertex="1" parent="1">
          <mxGeometry x="-370" y="515" width="120" height="60" as="geometry" />
        </mxCell>
        <mxCell id="ef6bgN57XjxLY9Qcaa6K-34" value="Account" style="rounded=1;whiteSpace=wrap;html=1;" vertex="1" parent="1">
          <mxGeometry x="-170" y="515" width="120" height="60" as="geometry" />
        </mxCell>
        <mxCell id="ef6bgN57XjxLY9Qcaa6K-35" value="" style="endArrow=classic;startArrow=classic;html=1;rounded=0;entryX=0;entryY=0.75;entryDx=0;entryDy=0;exitX=1;exitY=0.5;exitDx=0;exitDy=0;" edge="1" parent="1" source="ef6bgN57XjxLY9Qcaa6K-37" target="ef6bgN57XjxLY9Qcaa6K-33">
          <mxGeometry width="50" height="50" relative="1" as="geometry">
            <mxPoint x="-470" y="640" as="sourcePoint" />
            <mxPoint x="-350" y="640" as="targetPoint" />
          </mxGeometry>
        </mxCell>
        <mxCell id="ef6bgN57XjxLY9Qcaa6K-36" value="&lt;h1 style=&quot;margin-top: 0px;&quot;&gt;Edit Traveller Revision&lt;/h1&gt;" style="text;html=1;whiteSpace=wrap;overflow=hidden;rounded=0;" vertex="1" parent="1">
          <mxGeometry x="-500.5" y="349" width="261" height="47" as="geometry" />
        </mxCell>
        <mxCell id="ef6bgN57XjxLY9Qcaa6K-37" value="&lt;font style=&quot;font-size: 14px;&quot;&gt;Edit Traveller Revision&lt;/font&gt;" style="ellipse;whiteSpace=wrap;html=1;" vertex="1" parent="1">
          <mxGeometry x="-610" y="610" width="120" height="80" as="geometry" />
        </mxCell>
        <mxCell id="ef6bgN57XjxLY9Qcaa6K-38" value="" style="endArrow=classic;html=1;rounded=0;exitX=1;exitY=0.5;exitDx=0;exitDy=0;entryX=0;entryY=0.5;entryDx=0;entryDy=0;" edge="1" parent="1" source="ef6bgN57XjxLY9Qcaa6K-32" target="ef6bgN57XjxLY9Qcaa6K-33">
          <mxGeometry width="50" height="50" relative="1" as="geometry">
            <mxPoint x="-460" y="560" as="sourcePoint" />
            <mxPoint x="-410" y="510" as="targetPoint" />
          </mxGeometry>
        </mxCell>
        <mxCell id="ef6bgN57XjxLY9Qcaa6K-39" value="" style="endArrow=classic;html=1;rounded=0;exitX=0;exitY=0.5;exitDx=0;exitDy=0;entryX=1;entryY=0.5;entryDx=0;entryDy=0;" edge="1" parent="1" source="ef6bgN57XjxLY9Qcaa6K-34" target="ef6bgN57XjxLY9Qcaa6K-33">
          <mxGeometry width="50" height="50" relative="1" as="geometry">
            <mxPoint x="-260" y="660" as="sourcePoint" />
            <mxPoint x="-210" y="610" as="targetPoint" />
          </mxGeometry>
        </mxCell>
        <mxCell id="ef6bgN57XjxLY9Qcaa6K-40" value="Update Listing" style="rounded=1;whiteSpace=wrap;html=1;" vertex="1" parent="1">
          <mxGeometry x="-370" y="638" width="120" height="60" as="geometry" />
        </mxCell>
        <mxCell id="ef6bgN57XjxLY9Qcaa6K-41" value="" style="endArrow=classic;startArrow=classic;html=1;rounded=0;entryX=0.5;entryY=1;entryDx=0;entryDy=0;exitX=0.5;exitY=0;exitDx=0;exitDy=0;" edge="1" parent="1" source="ef6bgN57XjxLY9Qcaa6K-40" target="ef6bgN57XjxLY9Qcaa6K-33">
          <mxGeometry width="50" height="50" relative="1" as="geometry">
            <mxPoint x="-386" y="646" as="sourcePoint" />
            <mxPoint x="-336" y="596" as="targetPoint" />
          </mxGeometry>
        </mxCell>
        <mxCell id="ef6bgN57XjxLY9Qcaa6K-42" value="Head of Production Account" style="rounded=1;whiteSpace=wrap;html=1;" vertex="1" parent="1">
          <mxGeometry x="-170" y="638" width="120" height="60" as="geometry" />
        </mxCell>
        <mxCell id="ef6bgN57XjxLY9Qcaa6K-43" value="" style="endArrow=classic;startArrow=classic;html=1;rounded=0;entryX=0.5;entryY=1;entryDx=0;entryDy=0;" edge="1" parent="1" source="ef6bgN57XjxLY9Qcaa6K-42" target="ef6bgN57XjxLY9Qcaa6K-34">
          <mxGeometry width="50" height="50" relative="1" as="geometry">
            <mxPoint x="-207" y="642" as="sourcePoint" />
            <mxPoint x="-157" y="592" as="targetPoint" />
          </mxGeometry>
        </mxCell>
        <mxCell id="ef6bgN57XjxLY9Qcaa6K-44" value="&lt;font style=&quot;font-size: 24px;&quot;&gt;VIEWS&lt;/font&gt;" style="text;html=1;align=center;verticalAlign=middle;whiteSpace=wrap;rounded=0;" vertex="1" parent="1">
          <mxGeometry x="-580" y="824" width="60" height="30" as="geometry" />
        </mxCell>
        <mxCell id="ef6bgN57XjxLY9Qcaa6K-45" value="&lt;font style=&quot;font-size: 24px;&quot;&gt;MODELS&lt;/font&gt;" style="text;html=1;align=center;verticalAlign=middle;whiteSpace=wrap;rounded=0;" vertex="1" parent="1">
          <mxGeometry x="-340" y="824" width="60" height="30" as="geometry" />
        </mxCell>
        <mxCell id="ef6bgN57XjxLY9Qcaa6K-46" value="&lt;font style=&quot;font-size: 14px;&quot;&gt;View Travellers&lt;/font&gt;" style="ellipse;whiteSpace=wrap;html=1;" vertex="1" parent="1">
          <mxGeometry x="-610" y="862" width="120" height="80" as="geometry" />
        </mxCell>
        <mxCell id="ef6bgN57XjxLY9Qcaa6K-47" value="Traveller Sheet" style="rounded=1;whiteSpace=wrap;html=1;" vertex="1" parent="1">
          <mxGeometry x="-370" y="914" width="120" height="60" as="geometry" />
        </mxCell>
        <mxCell id="ef6bgN57XjxLY9Qcaa6K-48" value="Account" style="rounded=1;whiteSpace=wrap;html=1;" vertex="1" parent="1">
          <mxGeometry x="-170" y="914" width="120" height="60" as="geometry" />
        </mxCell>
        <mxCell id="ef6bgN57XjxLY9Qcaa6K-49" value="" style="endArrow=classic;startArrow=classic;html=1;rounded=0;entryX=0;entryY=0.5;entryDx=0;entryDy=0;" edge="1" parent="1" source="ef6bgN57XjxLY9Qcaa6K-51" target="ef6bgN57XjxLY9Qcaa6K-47">
          <mxGeometry width="50" height="50" relative="1" as="geometry">
            <mxPoint x="-470" y="1039" as="sourcePoint" />
            <mxPoint x="-350" y="1039" as="targetPoint" />
          </mxGeometry>
        </mxCell>
        <mxCell id="ef6bgN57XjxLY9Qcaa6K-50" value="&lt;h1 style=&quot;margin-top: 0px;&quot;&gt;Export Traveller&lt;/h1&gt;" style="text;html=1;whiteSpace=wrap;overflow=hidden;rounded=0;" vertex="1" parent="1">
          <mxGeometry x="-465.75" y="747" width="191.5" height="47" as="geometry" />
        </mxCell>
        <mxCell id="ef6bgN57XjxLY9Qcaa6K-51" value="&lt;font style=&quot;font-size: 14px;&quot;&gt;Select Travellers&lt;/font&gt;" style="ellipse;whiteSpace=wrap;html=1;" vertex="1" parent="1">
          <mxGeometry x="-610" y="957" width="120" height="80" as="geometry" />
        </mxCell>
        <mxCell id="ef6bgN57XjxLY9Qcaa6K-52" value="" style="endArrow=classic;html=1;rounded=0;exitX=0.96;exitY=0.343;exitDx=0;exitDy=0;entryX=0;entryY=0.25;entryDx=0;entryDy=0;exitPerimeter=0;" edge="1" parent="1" source="ef6bgN57XjxLY9Qcaa6K-46" target="ef6bgN57XjxLY9Qcaa6K-47">
          <mxGeometry width="50" height="50" relative="1" as="geometry">
            <mxPoint x="-460" y="959" as="sourcePoint" />
            <mxPoint x="-410" y="909" as="targetPoint" />
          </mxGeometry>
        </mxCell>
        <mxCell id="ef6bgN57XjxLY9Qcaa6K-53" value="" style="endArrow=classic;html=1;rounded=0;exitX=0;exitY=0.5;exitDx=0;exitDy=0;entryX=1;entryY=0.5;entryDx=0;entryDy=0;" edge="1" parent="1" source="ef6bgN57XjxLY9Qcaa6K-48" target="ef6bgN57XjxLY9Qcaa6K-47">
          <mxGeometry width="50" height="50" relative="1" as="geometry">
            <mxPoint x="-260" y="1059" as="sourcePoint" />
            <mxPoint x="-210" y="1009" as="targetPoint" />
          </mxGeometry>
        </mxCell>
        <mxCell id="ef6bgN57XjxLY9Qcaa6K-54" value="Update Listing" style="rounded=1;whiteSpace=wrap;html=1;" vertex="1" parent="1">
          <mxGeometry x="-370" y="1037" width="120" height="60" as="geometry" />
        </mxCell>
        <mxCell id="ef6bgN57XjxLY9Qcaa6K-55" value="" style="endArrow=classic;startArrow=classic;html=1;rounded=0;entryX=0.5;entryY=1;entryDx=0;entryDy=0;exitX=0.5;exitY=0;exitDx=0;exitDy=0;" edge="1" parent="1" source="ef6bgN57XjxLY9Qcaa6K-54" target="ef6bgN57XjxLY9Qcaa6K-47">
          <mxGeometry width="50" height="50" relative="1" as="geometry">
            <mxPoint x="-386" y="1045" as="sourcePoint" />
            <mxPoint x="-336" y="995" as="targetPoint" />
          </mxGeometry>
        </mxCell>
        <mxCell id="ef6bgN57XjxLY9Qcaa6K-56" value="Head of Production Account" style="rounded=1;whiteSpace=wrap;html=1;" vertex="1" parent="1">
          <mxGeometry x="-170" y="1037" width="120" height="60" as="geometry" />
        </mxCell>
        <mxCell id="ef6bgN57XjxLY9Qcaa6K-57" value="" style="endArrow=classic;startArrow=classic;html=1;rounded=0;entryX=0.5;entryY=1;entryDx=0;entryDy=0;" edge="1" parent="1" source="ef6bgN57XjxLY9Qcaa6K-56" target="ef6bgN57XjxLY9Qcaa6K-48">
          <mxGeometry width="50" height="50" relative="1" as="geometry">
            <mxPoint x="-207" y="1041" as="sourcePoint" />
            <mxPoint x="-157" y="991" as="targetPoint" />
          </mxGeometry>
        </mxCell>
        <mxCell id="ef6bgN57XjxLY9Qcaa6K-58" value="&lt;font style=&quot;font-size: 14px;&quot;&gt;Export Selected Travellers&lt;/font&gt;" style="ellipse;whiteSpace=wrap;html=1;" vertex="1" parent="1">
          <mxGeometry x="-610" y="1052" width="120" height="80" as="geometry" />
        </mxCell>
        <mxCell id="ef6bgN57XjxLY9Qcaa6K-59" value="" style="endArrow=classic;startArrow=classic;html=1;rounded=0;entryX=0;entryY=0.75;entryDx=0;entryDy=0;exitX=1;exitY=0.5;exitDx=0;exitDy=0;" edge="1" parent="1" source="ef6bgN57XjxLY9Qcaa6K-58" target="ef6bgN57XjxLY9Qcaa6K-47">
          <mxGeometry width="50" height="50" relative="1" as="geometry">
            <mxPoint x="-480" y="1007" as="sourcePoint" />
            <mxPoint x="-360" y="954" as="targetPoint" />
          </mxGeometry>
        </mxCell>
      </root>
    </mxGraphModel>
  </diagram>
</mxfile>
